#N canvas 24 22 593 709 10;
#X msg 967 397 disconnect;
#X obj 974 459 tgl 15 0 empty empty 1=connected 20 8 0 8 -4034 -257985
-1 1 1;
#X msg 945 375 connect 127.0.0.1 12346;
#X obj 175 35 mrpeach/unpackOSC;
#X obj 174 99 mrpeach/pipelist;
#X obj 974 323 mrpeach/packOSC;
#X obj 974 424 mrpeach/udpsend;
#X obj 175 10 mrpeach/udpreceive 12345;
#X obj 966 49 metro 2000;
#X obj 966 29 tgl 15 0 empty empty empty 17 7 0 10 -262144 -1 -1 1
1;
#X obj 966 70 bng 15 250 50 0 empty empty empty 17 7 0 10 -262144 -1
-1;
#X obj 945 353 loadbang;
#X obj 649 290 unpack f f f;
#X floatatom 649 309 5 0 0 0 - - -;
#X floatatom 697 309 5 0 0 0 - - -;
#X floatatom 746 309 5 0 0 0 - - -;
#X obj -35 286 unpack f f f;
#X floatatom -35 306 5 0 0 0 - - -;
#X floatatom 14 307 5 0 0 0 - - -;
#X floatatom 63 307 5 0 0 0 - - -;
#X obj 483 288 unpack f f f;
#X floatatom 483 308 5 0 0 0 - - -;
#X floatatom 532 308 5 0 0 0 - - -;
#X floatatom 580 308 5 0 0 0 - - -;
#X obj 137 288 unpack f f f;
#X floatatom 137 308 5 0 0 0 - - -;
#X floatatom 186 308 5 0 0 0 - - -;
#X floatatom 235 308 5 0 0 0 - - -;
#X obj 411 690 unpack f f f;
#X floatatom 411 709 5 0 0 0 - - -;
#X floatatom 460 709 5 0 0 0 - - -;
#X floatatom 509 710 5 0 0 0 - - -;
#X obj 247 691 unpack f f f;
#X floatatom 247 710 5 0 0 0 - - -;
#X floatatom 296 710 5 0 0 0 - - -;
#X floatatom 344 710 5 0 0 0 - - -;
#X obj 389 602 unpack f f f;
#X floatatom 389 621 5 0 0 0 - - -;
#X floatatom 438 622 5 0 0 0 - - -;
#X floatatom 487 622 5 0 0 0 - - -;
#X obj 240 599 unpack f f f;
#X floatatom 240 618 5 0 0 0 - - -;
#X floatatom 289 619 5 0 0 0 - - -;
#X floatatom 338 621 5 0 0 0 - - -;
#X obj 294 214 unpack f f f;
#X floatatom 294 242 5 0 0 0 - - -;
#X floatatom 336 242 5 0 0 0 - - -;
#X floatatom 379 242 5 0 0 0 - - -;
#X obj 295 388 unpack f f f;
#X floatatom 294 417 5 0 0 0 - - -;
#X floatatom 337 417 5 0 0 0 - - -;
#X floatatom 379 417 5 0 0 0 - - -;
#X msg 976 90 send /righthand_trackjointpos 2;
#X msg 986 112 send /lefthand_trackjointpos 2;
#X msg 988 134 send /rightelbow_trackjointpos 2;
#X msg 993 156 send /leftelbow_trackjointpos 2;
#X msg 1026 294 send /torso_trackjointpos 2;
#X msg 1023 272 send /head_trackjointpos 2;
#X msg 1017 249 send /leftknee_trackjointpos 2;
#X msg 1011 226 send /rightknee_trackjointpos 2;
#X msg 1007 204 send /leftfoot_trackjointpos 2;
#X msg 999 179 send /rightfoot_trackjointpos 2;
#X obj -35 324 s rhpwx;
#X obj 14 325 s rhpwy;
#X obj 63 325 s rhpwz;
#X obj 137 326 s repwx;
#X obj 186 327 s repwy;
#X obj 235 327 s repwz;
#X obj 581 326 s lepwz;
#X obj 532 326 s lepwy;
#X obj 483 326 s lepwx;
#X obj 649 327 s lhpwx;
#X obj 698 328 s lhpwy;
#X obj 747 328 s lhpwz;
#X obj 252 261 s hpwx;
#X obj 337 261 s hpwy;
#X obj 380 261 s hpwz;
#X obj 294 435 s tpwx;
#X obj 337 435 s tpwy;
#X obj 379 435 s tpwz;
#X obj 338 639 s rkpwz;
#X obj 289 638 s rkpwy;
#X obj 240 637 s rkpwx;
#X obj 487 641 s lkpwz;
#X obj 438 640 s lkpwy;
#X obj 389 639 s lkpwx;
#X obj 411 727 s lfpwx;
#X obj 460 727 s lfpwy;
#X obj 509 728 s lfpwz;
#X obj 247 728 s rfpwx;
#X obj 296 728 s rfpwy;
#X obj 345 728 s rfpwz;
#X obj 966 9 loadbang;
#X obj 173 122 mrpeach/routeOSC /righthand_pos_world /lefthand_pos_world
/rightelbow_pos_world /leftelbow_pos_world /rightfoot_pos_world /leftfoot_pos_world
/rightknee_pos_world /leftknee_pos_world /head_pos_world /torso_pos_world
/tracking_skeleton;
#X obj 481 205 s skl;
#X obj 531 223 print;
#X connect 0 0 6 0;
#X connect 2 0 6 0;
#X connect 3 0 4 0;
#X connect 3 1 4 1;
#X connect 4 0 93 0;
#X connect 4 0 95 0;
#X connect 5 0 6 0;
#X connect 6 0 1 0;
#X connect 7 0 3 0;
#X connect 8 0 10 0;
#X connect 9 0 8 0;
#X connect 10 0 52 0;
#X connect 11 0 2 0;
#X connect 12 0 13 0;
#X connect 12 1 14 0;
#X connect 12 2 15 0;
#X connect 13 0 71 0;
#X connect 14 0 72 0;
#X connect 15 0 73 0;
#X connect 16 0 17 0;
#X connect 16 1 18 0;
#X connect 16 2 19 0;
#X connect 17 0 62 0;
#X connect 18 0 63 0;
#X connect 19 0 64 0;
#X connect 20 0 21 0;
#X connect 20 1 22 0;
#X connect 20 2 23 0;
#X connect 21 0 70 0;
#X connect 22 0 69 0;
#X connect 23 0 68 0;
#X connect 24 0 25 0;
#X connect 24 1 26 0;
#X connect 24 2 27 0;
#X connect 25 0 65 0;
#X connect 26 0 66 0;
#X connect 27 0 67 0;
#X connect 28 0 29 0;
#X connect 28 1 30 0;
#X connect 28 2 31 0;
#X connect 29 0 86 0;
#X connect 30 0 87 0;
#X connect 31 0 88 0;
#X connect 32 0 33 0;
#X connect 32 1 34 0;
#X connect 32 2 35 0;
#X connect 33 0 89 0;
#X connect 34 0 90 0;
#X connect 35 0 91 0;
#X connect 36 0 37 0;
#X connect 36 1 38 0;
#X connect 36 2 39 0;
#X connect 37 0 85 0;
#X connect 38 0 84 0;
#X connect 39 0 83 0;
#X connect 40 0 41 0;
#X connect 40 1 42 0;
#X connect 40 2 43 0;
#X connect 41 0 82 0;
#X connect 42 0 81 0;
#X connect 43 0 80 0;
#X connect 44 0 45 0;
#X connect 44 1 46 0;
#X connect 44 2 47 0;
#X connect 45 0 74 0;
#X connect 46 0 75 0;
#X connect 47 0 76 0;
#X connect 48 0 49 0;
#X connect 48 1 50 0;
#X connect 48 2 51 0;
#X connect 49 0 77 0;
#X connect 50 0 78 0;
#X connect 51 0 79 0;
#X connect 52 0 5 0;
#X connect 52 0 53 0;
#X connect 53 0 5 0;
#X connect 53 0 54 0;
#X connect 54 0 5 0;
#X connect 54 0 55 0;
#X connect 55 0 5 0;
#X connect 55 0 61 0;
#X connect 56 0 5 0;
#X connect 57 0 5 0;
#X connect 57 0 56 0;
#X connect 58 0 5 0;
#X connect 58 0 57 0;
#X connect 59 0 5 0;
#X connect 59 0 58 0;
#X connect 60 0 5 0;
#X connect 60 0 59 0;
#X connect 61 0 5 0;
#X connect 61 0 60 0;
#X connect 92 0 9 0;
#X connect 93 0 12 0;
#X connect 93 1 16 0;
#X connect 93 2 20 0;
#X connect 93 3 24 0;
#X connect 93 4 28 0;
#X connect 93 5 32 0;
#X connect 93 6 36 0;
#X connect 93 7 40 0;
#X connect 93 8 44 0;
#X connect 93 9 48 0;
#X connect 93 10 94 0;
